<?xml version="1.0" encoding="utf-8"?>
<!-- Generator: Adobe Illustrator 23.0.5, SVG Export Plug-In . SVG Version: 6.00 Build 0)  -->
<svg version="1.1" xmlns="http://www.w3.org/2000/svg" xmlns:xlink="http://www.w3.org/1999/xlink" x="0px" y="0px"
	 viewBox="0 0 192.4 82.2" style="enable-background:new 0 0 192.4 82.2;" xml:space="preserve">
<style type="text/css">
	.st0{display:none;}
	.st1{display:none;fill:#FFFFFF;stroke:#000000;stroke-miterlimit:10;}
	.st2{display:inline;opacity:0.5;}
	.st3{fill:#FFFFFF;}
	.st4{fill:#FCFCFE;}
	.st5{fill:#F8F9FD;}
	.st6{fill:#F5F6FC;}
	.st7{fill:#F1F3FB;}
	.st8{fill:#EEF0FA;}
	.st9{fill:#EAEDF9;}
	.st10{fill:#E7EAF8;}
	.st11{fill:#E4E7F7;}
	.st12{fill:#E0E4F6;}
	.st13{fill:#DDE1F5;}
	.st14{fill:#D9DEF5;}
	.st15{fill:#D6DBF4;}
	.st16{fill:#D2D8F3;}
	.st17{fill:#CFD5F2;}
	.st18{fill:#CCD2F1;}
	.st19{fill:#C8CFF0;}
	.st20{fill:#C5CCEF;}
	.st21{fill:#C1C9EE;}
	.st22{fill:#BEC6ED;}
	.st23{fill:#BAC3EC;}
	.st24{fill:#B7C0EB;}
	.st25{display:inline;fill:#B7C0EB;}
	.st26{display:inline;fill:url(#SVGID_1_);}
	.st27{display:inline;}
	.st28{fill:url(#SVGID_2_);}
	.st29{display:inline;fill:#EFF1FE;}
	.st30{fill:url(#SVGID_3_);}
	.st31{fill:url(#SVGID_4_);}
	.st32{fill:url(#SVGID_5_);}
	.st33{fill:url(#SVGID_6_);}
	.st34{fill:url(#SVGID_7_);}
	.st35{fill:url(#SVGID_8_);}
	.st36{fill:url(#SVGID_9_);}
	.st37{fill:url(#SVGID_10_);}
	.st38{fill:url(#SVGID_11_);}
	.st39{fill:url(#SVGID_12_);}
	.st40{fill:url(#SVGID_13_);}
	.st41{fill:url(#SVGID_14_);}
	.st42{fill:url(#SVGID_15_);}
	.st43{fill:url(#SVGID_16_);}
	.st44{fill:url(#SVGID_17_);}
	.st45{fill:url(#SVGID_18_);}
	.st46{display:none;opacity:0.03;}
	.st47{display:inline;fill:#ED2A24;}
	.st48{fill:url(#SVGID_19_);}
	.st49{display:inline;fill:#FFFFFF;}
	.st50{fill:url(#SVGID_20_);}
	.st51{fill:#AAAAAA;}
	.st52{fill:#E2E2E2;}
	.st53{fill:#494949;}
	.st54{fill:#EF4123;}
	.st55{fill:#414042;}
	.st56{opacity:0.43;}
	.st57{fill:#0C25BA;}
	.st58{fill:url(#SVGID_21_);}
	.st59{fill:#F7F7F9;}
	.st60{fill:#7777D8;}
	.st61{fill:#9898ED;}
	.st62{fill:#757575;}
	.st63{fill:url(#SVGID_22_);}
	.st64{fill:url(#SVGID_23_);}
	.st65{fill:#474AB6;}
	.st66{fill:url(#SVGID_24_);}
	.st67{fill:#FFD33F;}
	.st68{fill:#4A5EA5;}
	.st69{fill:url(#SVGID_25_);}
	.st70{fill:#FF7364;}
	.st71{fill:#5A3B72;}
	.st72{opacity:0.2;fill:#9FAFFC;}
	.st73{opacity:0;fill:#9FAFFC;}
	.st74{opacity:0.43;fill:#0C25BA;}
	.st75{fill:url(#SVGID_26_);}
	.st76{fill:url(#SVGID_27_);}
	.st77{fill:#F0F0FC;}
	.st78{fill:url(#SVGID_28_);}
	.st79{opacity:0.5;}
	.st80{fill:#8D98E2;}
	.st81{fill:url(#SVGID_29_);}
	.st82{fill:url(#SVGID_30_);}
	.st83{fill:url(#SVGID_31_);}
	.st84{fill:#6732EF;}
	.st85{fill:url(#SVGID_32_);}
	.st86{fill:#DCDCF9;}
	.st87{fill:#C0C0F9;}
	.st88{fill:#3CB779;}
	.st89{fill:#319A60;}
	.st90{fill:url(#SVGID_33_);}
	.st91{fill:url(#SVGID_34_);}
	.st92{fill:url(#SVGID_35_);}
	.st93{fill:url(#SVGID_36_);}
	.st94{fill:url(#SVGID_37_);}
	.st95{fill:url(#SVGID_38_);}
	.st96{fill:url(#SVGID_39_);}
	.st97{fill:#FFD051;}
	.st98{fill:url(#SVGID_40_);}
	.st99{fill:url(#SVGID_41_);}
	.st100{fill:url(#SVGID_42_);}
	.st101{fill:url(#SVGID_43_);}
	.st102{fill:#36399F;}
	.st103{fill:url(#SVGID_44_);}
	.st104{fill:url(#SVGID_45_);}
	.st105{fill:url(#SVGID_46_);}
	.st106{fill:url(#SVGID_47_);}
	.st107{fill:url(#SVGID_48_);}
	.st108{fill:url(#SVGID_49_);}
	.st109{fill:url(#SVGID_50_);}
	.st110{fill:url(#SVGID_51_);}
	.st111{fill:url(#SVGID_52_);}
	.st112{fill:url(#SVGID_53_);}
	.st113{fill:url(#SVGID_54_);}
	.st114{fill:url(#SVGID_55_);}
	.st115{fill:#212D60;}
	.st116{fill:url(#SVGID_56_);}
	.st117{fill:url(#SVGID_57_);}
	.st118{fill:url(#SVGID_58_);}
	.st119{fill:url(#SVGID_59_);}
	.st120{fill:url(#SVGID_60_);}
	.st121{fill:#FD256F;}
	.st122{fill:#232F6D;}
	.st123{fill:url(#SVGID_61_);}
	.st124{fill:#F26921;}
	.st125{fill:url(#SVGID_62_);}
	.st126{fill:url(#SVGID_63_);}
	.st127{fill:url(#SVGID_64_);}
	.st128{enable-background:new    ;}
	.st129{fill:#6D6E71;}
	.st130{clip-path:url(#SVGID_66_);enable-background:new    ;}
	.st131{fill:#858585;}
	.st132{fill:#8A8A8A;}
	.st133{fill:#8F8F8F;}
	.st134{fill:#949494;}
	.st135{fill:#999999;}
	.st136{fill:#9E9E9E;}
	.st137{fill:#A3A3A3;}
	.st138{fill:#A8A8A8;}
	.st139{fill:#ADADAD;}
	.st140{fill:#B3B3B3;}
	.st141{fill:#B8B8B8;}
	.st142{fill:#B0B0B0;}
	.st143{clip-path:url(#SVGID_68_);enable-background:new    ;}
	.st144{clip-path:url(#SVGID_70_);enable-background:new    ;}
	.st145{fill:#898989;}
	.st146{fill:#C5C5C5;}
	.st147{clip-path:url(#SVGID_72_);enable-background:new    ;}
	.st148{clip-path:url(#SVGID_74_);enable-background:new    ;}
	.st149{fill:#BCBCBC;}
	.st150{opacity:0;fill:#FFFFFF;}
	.st151{opacity:0.0196;fill:#FEFEFF;}
	.st152{opacity:0.0392;fill:#FCFDFE;}
	.st153{opacity:0.0588;fill:#FBFBFE;}
	.st154{opacity:0.0784;fill:#F9FAFD;}
	.st155{opacity:0.098;fill:#F8F9FD;}
	.st156{opacity:0.1176;fill:#F7F8FD;}
	.st157{opacity:0.1373;fill:#F5F6FC;}
	.st158{opacity:0.1569;fill:#F4F5FC;}
	.st159{opacity:0.1765;fill:#F2F4FB;}
	.st160{opacity:0.1961;fill:#F1F3FB;}
	.st161{opacity:0.2157;fill:#EFF1FB;}
	.st162{opacity:0.2353;fill:#EEF0FA;}
	.st163{opacity:0.2549;fill:#EDEFFA;}
	.st164{opacity:0.2745;fill:#EBEEFA;}
	.st165{opacity:0.2941;fill:#EAECF9;}
	.st166{opacity:0.3137;fill:#E8EBF9;}
	.st167{opacity:0.3333;fill:#E7EAF8;}
	.st168{opacity:0.3529;fill:#E6E9F8;}
	.st169{opacity:0.3725;fill:#E4E8F8;}
	.st170{opacity:0.3922;fill:#E3E6F7;}
	.st171{opacity:0.4118;fill:#E1E5F7;}
	.st172{opacity:0.4314;fill:#E0E4F6;}
	.st173{opacity:0.451;fill:#DFE3F6;}
	.st174{opacity:0.4706;fill:#DDE1F6;}
	.st175{opacity:0.4902;fill:#DCE0F5;}
	.st176{opacity:0.5098;fill:#DADFF5;}
	.st177{opacity:0.5294;fill:#D9DEF4;}
	.st178{opacity:0.549;fill:#D7DCF4;}
	.st179{opacity:0.5686;fill:#D6DBF4;}
	.st180{opacity:0.5882;fill:#D5DAF3;}
	.st181{opacity:0.6078;fill:#D3D9F3;}
	.st182{opacity:0.6275;fill:#D2D7F2;}
	.st183{opacity:0.6471;fill:#D0D6F2;}
	.st184{opacity:0.6667;fill:#CFD5F2;}
	.st185{opacity:0.6863;fill:#CED4F1;}
	.st186{opacity:0.7059;fill:#CCD3F1;}
	.st187{opacity:0.7255;fill:#CBD1F0;}
	.st188{opacity:0.7451;fill:#C9D0F0;}
	.st189{opacity:0.7647;fill:#C8CFF0;}
	.st190{opacity:0.7843;fill:#C7CEEF;}
	.st191{opacity:0.8039;fill:#C5CCEF;}
	.st192{opacity:0.8235;fill:#C4CBEF;}
	.st193{opacity:0.8431;fill:#C2CAEE;}
	.st194{opacity:0.8627;fill:#C1C9EE;}
	.st195{opacity:0.8824;fill:#BFC7ED;}
	.st196{opacity:0.902;fill:#BEC6ED;}
	.st197{opacity:0.9216;fill:#BDC5ED;}
	.st198{opacity:0.9412;fill:#BBC4EC;}
	.st199{opacity:0.9608;fill:#BAC2EC;}
	.st200{opacity:0.9804;fill:#B8C1EB;}
	.st201{fill:url(#SVGID_75_);}
	.st202{fill:url(#SVGID_76_);}
	.st203{fill:url(#SVGID_77_);}
	.st204{fill:url(#SVGID_78_);}
	.st205{fill:url(#SVGID_79_);}
	.st206{fill:url(#SVGID_80_);}
	.st207{fill:url(#SVGID_81_);}
	.st208{fill:url(#SVGID_82_);}
	.st209{fill:url(#SVGID_83_);}
	.st210{clip-path:url(#SVGID_85_);}
	.st211{fill:#4CD9ED;}
	.st212{opacity:0.9804;fill:#50DAED;}
	.st213{opacity:0.9608;fill:#53DAEE;}
	.st214{opacity:0.9412;fill:#57DBEE;}
	.st215{opacity:0.9216;fill:#5ADCEE;}
	.st216{opacity:0.902;fill:#5EDDEF;}
	.st217{opacity:0.8824;fill:#61DDEF;}
	.st218{opacity:0.8627;fill:#65DEEF;}
	.st219{opacity:0.8431;fill:#68DFF0;}
	.st220{opacity:0.8235;fill:#6CE0F0;}
	.st221{opacity:0.8039;fill:#6FE0F1;}
	.st222{opacity:0.7843;fill:#73E1F1;}
	.st223{opacity:0.7647;fill:#76E2F1;}
	.st224{opacity:0.7451;fill:#7AE3F2;}
	.st225{opacity:0.7255;fill:#7DE3F2;}
	.st226{opacity:0.7059;fill:#81E4F2;}
	.st227{opacity:0.6863;fill:#84E5F3;}
	.st228{opacity:0.6667;fill:#88E6F3;}
	.st229{opacity:0.6471;fill:#8BE6F3;}
	.st230{opacity:0.6275;fill:#8FE7F4;}
	.st231{opacity:0.6078;fill:#92E8F4;}
	.st232{opacity:0.5882;fill:#96E9F4;}
	.st233{opacity:0.5686;fill:#99E9F5;}
	.st234{opacity:0.549;fill:#9DEAF5;}
	.st235{opacity:0.5294;fill:#A0EBF5;}
	.st236{opacity:0.5098;fill:#A4ECF6;}
	.st237{opacity:0.4902;fill:#A7ECF6;}
	.st238{opacity:0.4706;fill:#ABEDF7;}
	.st239{opacity:0.451;fill:#AEEEF7;}
	.st240{opacity:0.4314;fill:#B2EFF7;}
	.st241{opacity:0.4118;fill:#B5EFF8;}
	.st242{opacity:0.3922;fill:#B9F0F8;}
	.st243{opacity:0.3725;fill:#BCF1F8;}
	.st244{opacity:0.3529;fill:#C0F2F9;}
	.st245{opacity:0.3333;fill:#C3F2F9;}
	.st246{opacity:0.3137;fill:#C7F3F9;}
	.st247{opacity:0.2941;fill:#CAF4FA;}
	.st248{opacity:0.2745;fill:#CEF5FA;}
	.st249{opacity:0.2549;fill:#D1F5FA;}
	.st250{opacity:0.2353;fill:#D5F6FB;}
	.st251{opacity:0.2157;fill:#D8F7FB;}
	.st252{opacity:0.1961;fill:#DCF8FB;}
	.st253{opacity:0.1765;fill:#DFF8FC;}
	.st254{opacity:0.1569;fill:#E3F9FC;}
	.st255{opacity:0.1373;fill:#E6FAFD;}
	.st256{opacity:0.1176;fill:#EAFBFD;}
	.st257{opacity:0.098;fill:#EDFBFD;}
	.st258{opacity:0.0784;fill:#F1FCFE;}
	.st259{opacity:0.0588;fill:#F4FDFE;}
	.st260{opacity:0.0392;fill:#F8FEFE;}
	.st261{opacity:0.0196;fill:#FBFEFF;}
	.st262{opacity:0.9756;fill:#50DAED;}
	.st263{opacity:0.9512;fill:#55DBEE;}
	.st264{opacity:0.9268;fill:#59DCEE;}
	.st265{opacity:0.9024;fill:#5DDDEF;}
	.st266{opacity:0.878;fill:#62DEEF;}
	.st267{opacity:0.8537;fill:#66DFF0;}
	.st268{opacity:0.8293;fill:#6BDFF0;}
	.st269{opacity:0.8049;fill:#6FE0F1;}
	.st270{opacity:0.7805;fill:#73E1F1;}
	.st271{opacity:0.7561;fill:#78E2F1;}
	.st272{opacity:0.7317;fill:#7CE3F2;}
	.st273{opacity:0.7073;fill:#80E4F2;}
	.st274{opacity:0.6829;fill:#85E5F3;}
	.st275{opacity:0.6585;fill:#89E6F3;}
	.st276{opacity:0.6341;fill:#8DE7F4;}
	.st277{opacity:0.6098;fill:#92E8F4;}
	.st278{opacity:0.5854;fill:#96E9F4;}
	.st279{opacity:0.561;fill:#9BEAF5;}
	.st280{opacity:0.5366;fill:#9FEBF5;}
	.st281{opacity:0.5122;fill:#A3ECF6;}
	.st282{opacity:0.4878;fill:#A8ECF6;}
	.st283{opacity:0.4634;fill:#ACEDF7;}
	.st284{opacity:0.439;fill:#B0EEF7;}
	.st285{opacity:0.4146;fill:#B5EFF8;}
	.st286{opacity:0.3902;fill:#B9F0F8;}
	.st287{opacity:0.3659;fill:#BEF1F8;}
	.st288{opacity:0.3415;fill:#C2F2F9;}
	.st289{opacity:0.3171;fill:#C6F3F9;}
	.st290{opacity:0.2927;fill:#CBF4FA;}
	.st291{opacity:0.2683;fill:#CFF5FA;}
	.st292{opacity:0.2439;fill:#D3F6FB;}
	.st293{opacity:0.2195;fill:#D8F7FB;}
	.st294{opacity:0.1951;fill:#DCF8FB;}
	.st295{opacity:0.1707;fill:#E0F9FC;}
	.st296{opacity:0.1463;fill:#E5F9FC;}
	.st297{opacity:0.122;fill:#E9FAFD;}
	.st298{opacity:0.0976;fill:#EEFBFD;}
	.st299{opacity:0.0732;fill:#F2FCFE;}
	.st300{opacity:0.0488;fill:#F6FDFE;}
	.st301{opacity:0.0244;fill:#FBFEFF;}
	.st302{fill:url(#SVGID_86_);}
	.st303{fill:url(#SVGID_87_);}
	.st304{fill:url(#SVGID_88_);}
	.st305{fill:url(#SVGID_89_);}
	.st306{fill:url(#SVGID_90_);}
	.st307{fill:url(#SVGID_91_);}
	.st308{fill:url(#SVGID_92_);}
	.st309{fill:url(#SVGID_93_);}
	.st310{fill:url(#SVGID_94_);}
	.st311{fill:url(#SVGID_95_);}
	.st312{fill:url(#SVGID_96_);}
	.st313{fill:url(#SVGID_97_);}
	.st314{fill:url(#SVGID_98_);}
	.st315{fill:url(#SVGID_99_);}
	.st316{fill:url(#SVGID_100_);}
	.st317{fill:url(#SVGID_101_);}
	.st318{fill:url(#SVGID_102_);}
	.st319{fill:url(#SVGID_103_);}
	.st320{fill:url(#SVGID_104_);}
	.st321{fill:url(#SVGID_105_);}
	.st322{fill:url(#SVGID_106_);}
	.st323{fill:url(#SVGID_107_);}
	.st324{fill:url(#SVGID_108_);}
	.st325{fill:url(#SVGID_109_);}
	.st326{fill:url(#SVGID_110_);}
	.st327{fill:url(#SVGID_111_);}
	.st328{fill:url(#SVGID_112_);}
	.st329{fill:url(#SVGID_113_);}
	.st330{fill:url(#SVGID_114_);}
	.st331{fill:url(#SVGID_115_);}
	.st332{fill:url(#SVGID_116_);}
	.st333{fill:url(#SVGID_117_);}
	.st334{fill:url(#SVGID_118_);}
	.st335{fill:url(#SVGID_119_);}
	.st336{fill:url(#SVGID_120_);}
	.st337{fill:url(#SVGID_121_);}
	.st338{fill:url(#SVGID_122_);}
	.st339{fill:url(#SVGID_123_);}
	.st340{fill:url(#SVGID_124_);}
	.st341{fill:url(#SVGID_125_);}
	.st342{fill:url(#SVGID_126_);}
	.st343{fill:url(#SVGID_127_);}
	.st344{fill:url(#SVGID_128_);}
	.st345{fill:url(#SVGID_129_);}
	.st346{fill:url(#SVGID_130_);}
	.st347{fill:url(#SVGID_131_);}
	.st348{fill:url(#SVGID_132_);}
	.st349{fill:url(#SVGID_133_);}
	.st350{fill:url(#SVGID_134_);}
	.st351{fill:url(#SVGID_135_);}
	.st352{fill:url(#SVGID_136_);}
	.st353{fill:url(#SVGID_137_);}
	.st354{fill:url(#SVGID_138_);}
	.st355{fill:url(#SVGID_139_);}
	.st356{fill:url(#SVGID_140_);}
	.st357{fill:url(#SVGID_141_);}
	.st358{fill:url(#SVGID_142_);}
	.st359{fill:url(#SVGID_143_);}
	.st360{fill:url(#SVGID_144_);}
	.st361{fill:url(#SVGID_145_);}
	.st362{fill:url(#SVGID_146_);}
	.st363{fill:url(#SVGID_147_);}
	.st364{fill:url(#SVGID_148_);}
	.st365{fill:url(#SVGID_149_);}
	.st366{fill:url(#SVGID_150_);}
	.st367{fill:url(#SVGID_151_);}
	.st368{fill:url(#SVGID_152_);}
	.st369{fill:url(#SVGID_153_);}
	.st370{fill:url(#SVGID_154_);}
	.st371{fill:url(#SVGID_155_);}
	.st372{fill:url(#SVGID_156_);}
	.st373{fill:url(#SVGID_157_);}
	.st374{fill:url(#SVGID_158_);}
	.st375{fill:url(#SVGID_159_);}
	.st376{fill:url(#SVGID_160_);}
	.st377{fill:url(#SVGID_161_);}
	.st378{fill:url(#SVGID_162_);}
	.st379{fill:url(#SVGID_163_);}
	.st380{fill:url(#SVGID_164_);}
	.st381{fill:url(#SVGID_165_);}
	.st382{fill:url(#SVGID_166_);}
	.st383{fill:url(#SVGID_167_);}
	.st384{fill:url(#SVGID_168_);}
	.st385{fill:url(#SVGID_169_);}
	.st386{fill:url(#SVGID_170_);}
	.st387{fill:url(#SVGID_171_);}
	.st388{fill:url(#SVGID_172_);}
	.st389{fill:url(#SVGID_173_);}
	.st390{fill:url(#SVGID_174_);}
	.st391{fill:url(#SVGID_175_);}
	.st392{fill:url(#SVGID_176_);}
	.st393{fill:url(#SVGID_177_);}
	.st394{fill:url(#SVGID_178_);}
	.st395{display:inline;fill:url(#SVGID_179_);}
	.st396{display:inline;fill:url(#SVGID_180_);}
	.st397{display:inline;fill:url(#SVGID_181_);}
	.st398{fill:#EFF1FE;}
	.st399{fill:url(#SVGID_182_);}
	.st400{fill:url(#SVGID_183_);}
	.st401{fill:url(#SVGID_184_);}
	.st402{fill:url(#SVGID_185_);}
	.st403{display:inline;enable-background:new    ;}
	.st404{fill:url(#SVGID_186_);}
	.st405{fill:url(#SVGID_187_);}
	.st406{opacity:0;fill:#FEFEFC;}
	.st407{opacity:0.0323;fill:#FCFCFB;}
	.st408{opacity:0.0645;fill:#F9FAFB;}
	.st409{opacity:0.0968;fill:#F7F8FA;}
	.st410{opacity:0.129;fill:#F5F6FA;}
	.st411{opacity:0.1613;fill:#F3F4F9;}
	.st412{opacity:0.1935;fill:#F0F2F9;}
	.st413{opacity:0.2258;fill:#EEF0F8;}
	.st414{opacity:0.2581;fill:#ECEEF8;}
	.st415{opacity:0.2903;fill:#E9ECF7;}
	.st416{opacity:0.3226;fill:#E7EAF7;}
	.st417{opacity:0.3548;fill:#E5E8F6;}
	.st418{opacity:0.3871;fill:#E3E6F5;}
	.st419{opacity:0.4194;fill:#E0E4F5;}
	.st420{opacity:0.4516;fill:#DEE2F4;}
	.st421{opacity:0.4839;fill:#DCE0F4;}
	.st422{opacity:0.5161;fill:#D9DEF3;}
	.st423{opacity:0.5484;fill:#D7DCF3;}
	.st424{opacity:0.5806;fill:#D5DAF2;}
	.st425{opacity:0.6129;fill:#D2D8F2;}
	.st426{opacity:0.6452;fill:#D0D6F1;}
	.st427{opacity:0.6774;fill:#CED4F0;}
	.st428{opacity:0.7097;fill:#CCD2F0;}
	.st429{opacity:0.7419;fill:#C9D0EF;}
	.st430{opacity:0.7742;fill:#C7CEEF;}
	.st431{opacity:0.8065;fill:#C5CCEE;}
	.st432{opacity:0.8387;fill:#C2CAEE;}
	.st433{opacity:0.871;fill:#C0C8ED;}
	.st434{opacity:0.9032;fill:#BEC6ED;}
	.st435{opacity:0.9355;fill:#BCC4EC;}
	.st436{opacity:0.9677;fill:#B9C2EC;}
	.st437{fill:url(#SVGID_188_);}
	.st438{fill:url(#SVGID_189_);}
	.st439{fill:url(#SVGID_190_);}
	.st440{fill:url(#SVGID_191_);}
	.st441{fill:url(#SVGID_192_);}
	.st442{fill:url(#SVGID_193_);}
	.st443{fill:url(#SVGID_194_);}
	.st444{fill:url(#SVGID_195_);}
	.st445{fill:url(#SVGID_196_);}
	.st446{fill:url(#SVGID_197_);}
	.st447{fill:url(#SVGID_198_);}
	.st448{fill:url(#SVGID_199_);}
	.st449{fill:url(#SVGID_200_);}
	.st450{fill:url(#SVGID_201_);}
	.st451{fill:url(#SVGID_202_);}
	.st452{fill:url(#SVGID_203_);}
	.st453{fill:url(#SVGID_204_);}
	.st454{fill:url(#SVGID_205_);}
	.st455{fill:url(#SVGID_206_);}
	.st456{fill:url(#SVGID_207_);}
	.st457{fill:url(#SVGID_208_);}
	.st458{fill:url(#SVGID_209_);}
	.st459{opacity:0.0476;fill:#FCFCFE;}
	.st460{opacity:0.0952;fill:#F8F9FD;}
	.st461{opacity:0.1429;fill:#F5F6FC;}
	.st462{opacity:0.1905;fill:#F1F3FB;}
	.st463{opacity:0.2381;fill:#EEF0FA;}
	.st464{opacity:0.2857;fill:#EAEDF9;}
	.st465{opacity:0.381;fill:#E4E7F7;}
	.st466{opacity:0.4286;fill:#E0E4F6;}
	.st467{opacity:0.4762;fill:#DDE1F5;}
	.st468{opacity:0.5238;fill:#D9DEF5;}
	.st469{opacity:0.5714;fill:#D6DBF4;}
	.st470{opacity:0.619;fill:#D2D8F3;}
	.st471{opacity:0.7143;fill:#CCD2F1;}
	.st472{opacity:0.7619;fill:#C8CFF0;}
	.st473{opacity:0.8095;fill:#C5CCEF;}
	.st474{opacity:0.8571;fill:#C1C9EE;}
	.st475{opacity:0.9048;fill:#BEC6ED;}
	.st476{opacity:0.9524;fill:#BAC3EC;}
	.st477{opacity:0;}
	.st478{opacity:0.0323;}
	.st479{fill:#FDFDFE;}
	.st480{opacity:0.0645;}
	.st481{fill:#FAFBFE;}
	.st482{opacity:0.0968;}
	.st483{opacity:0.129;}
	.st484{fill:#F6F7FC;}
	.st485{opacity:0.1613;}
	.st486{fill:#F3F5FC;}
	.st487{opacity:0.1935;}
	.st488{opacity:0.2258;}
	.st489{fill:#EFF1FA;}
	.st490{opacity:0.2581;}
	.st491{fill:#ECEFFA;}
	.st492{opacity:0.2903;}
	.st493{opacity:0.3226;}
	.st494{fill:#E8EBF9;}
	.st495{opacity:0.3548;}
	.st496{fill:#E5E9F8;}
	.st497{opacity:0.3871;}
	.st498{fill:#E3E7F7;}
	.st499{opacity:0.4194;}
	.st500{fill:#E1E5F7;}
	.st501{opacity:0.4516;}
	.st502{fill:#DEE3F6;}
	.st503{opacity:0.4839;}
	.st504{fill:#DCE1F5;}
	.st505{opacity:0.5161;}
	.st506{fill:#DADEF5;}
	.st507{opacity:0.5484;}
	.st508{fill:#D8DCF4;}
	.st509{opacity:0.5806;}
	.st510{fill:#D5DAF3;}
	.st511{opacity:0.6129;}
	.st512{fill:#D3D8F3;}
	.st513{opacity:0.6452;}
	.st514{fill:#D1D6F2;}
	.st515{opacity:0.6774;}
	.st516{fill:#CED4F1;}
	.st517{opacity:0.7097;}
	.st518{opacity:0.7419;}
	.st519{fill:#CAD0F0;}
	.st520{opacity:0.7742;}
	.st521{fill:#C7CEF0;}
	.st522{opacity:0.8065;}
	.st523{opacity:0.8387;}
	.st524{fill:#C3CAEE;}
	.st525{opacity:0.871;}
	.st526{fill:#C0C8EE;}
	.st527{opacity:0.9032;}
	.st528{opacity:0.9355;}
	.st529{fill:#BCC4EC;}
	.st530{opacity:0.9677;}
	.st531{fill:#B9C2EC;}
	.st532{fill:url(#SVGID_210_);}
	.st533{fill:url(#SVGID_211_);}
	.st534{fill:url(#SVGID_212_);}
	.st535{display:inline;fill:url(#SVGID_213_);}
	.st536{display:inline;fill:url(#SVGID_214_);}
	.st537{display:inline;fill:url(#SVGID_215_);}
	.st538{display:inline;fill:url(#SVGID_216_);}
	.st539{clip-path:url(#SVGID_219_);fill:#C7CFEF;}
	.st540{clip-path:url(#SVGID_219_);enable-background:new    ;}
	.st541{fill:url(#SVGID_220_);}
	.st542{fill:url(#SVGID_221_);}
	.st543{fill:#E4E7FB;}
	.st544{fill:url(#SVGID_222_);}
	.st545{fill:url(#SVGID_223_);}
	.st546{fill:url(#SVGID_224_);}
	.st547{fill:url(#SVGID_225_);}
	.st548{fill:url(#SVGID_226_);}
	.st549{fill:#77E2F1;}
	.st550{fill:#71E1F1;}
	.st551{fill:#6ADFF0;}
	.st552{fill:#61DEEF;}
	.st553{fill:#4AD5E8;}
	.st554{fill:#49D0E4;}
	.st555{fill:#47CCDF;}
	.st556{fill:#46C8DA;}
	.st557{fill:#44C3D5;}
	.st558{fill:#43BFD1;}
	.st559{fill:#41BBCC;}
	.st560{fill:#40B6C7;}
	.st561{fill:#3EB2C2;}
	.st562{fill:#3DAEBE;}
	.st563{fill:#3BA9B9;}
	.st564{fill:#3AA5B4;}
	.st565{fill:#38A1AF;}
	.st566{fill:#379CAB;}
	.st567{fill:#3598A6;}
	.st568{fill:#3494A1;}
	.st569{fill:#328F9C;}
	.st570{fill:#318B98;}
	.st571{fill:#2F8793;}
	.st572{fill:#2E828E;}
	.st573{fill:#2C7E89;}
	.st574{fill:#2B7A85;}
	.st575{fill:#297580;}
	.st576{fill:#28717B;}
	.st577{fill:url(#SVGID_227_);}
	.st578{fill:url(#SVGID_228_);}
	.st579{fill:url(#SVGID_229_);}
</style>
<g id="Text">
	<g>
		<g id="XMLID_2_">
			<path id="XMLID_3462_" class="st54" d="M87.28,9.88c-1.62-5.51-6.71-9.55-12.74-9.55h-26.2c3.75,2.39,7.28,5.44,9.95,8.97h16.25
				c1.95,0,3.57,1.3,4.11,3.07v2.44v13.39l0.05,4.41V54.6c0.04,2.42,2.03,4.38,4.45,4.38c2.37,0,4.34-1.89,4.44-4.27l0.01-0.06
				v-5.56V23.23v-7.27v-4.7C87.51,10.79,87.41,10.34,87.28,9.88"/>
			<path id="XMLID_3461_" class="st54" d="M109.65,0.34c-7.32,0-13.28,5.95-13.28,13.27c0,2.73,0.86,5.4,2.44,7.63l-0.06,0.06
				l1,1.11c0.19,0.22,3.22,3.23,11.66,11.61c4.36,4.31,8.85,8.78,9.08,9.01c0.48,0.56,1.05,1.5,1.05,2.78
				c0,2.37-1.92,4.29-4.29,4.29L98.8,50.11h-1.82c-0.05,0-0.1,0.01-0.16,0.01c-2.37,0.13-4.27,2.1-4.27,4.48
				c0,2.4,1.91,4.38,4.32,4.5l0.06,0.01h1.87h18.45c7.32,0,13.27-5.96,13.27-13.28c0-2.74-0.85-5.4-2.43-7.64l0.06-0.07l-0.99-1.1
				c-0.37-0.42-15.55-15.46-20.27-20.15c-0.17-0.15-0.33-0.31-0.49-0.47c-0.48-0.56-1.05-1.51-1.05-2.78c0-2.37,1.93-4.3,4.3-4.3
				h26.26c2.58-4.05,5.44-6.2,9.26-8.97H109.65z"/>
			<path id="XMLID_3460_" class="st54" d="M134.97,36.78c3.9,15.92,20.02,25.69,35.93,21.79c10.11-2.47,17.88-10.02,21.04-19.45
				c0.13-0.41,0.28-0.81,0.4-1.22c0.09-0.56,0.07-1.15-0.07-1.74c-0.58-2.35-2.96-3.8-5.32-3.23c-1.4,0.35-2.46,1.33-2.98,2.56
				c-0.09,0.31-0.18,0.61-0.28,0.91c-2.24,6.67-7.73,11.95-14.86,13.69c-11.24,2.75-22.63-4.15-25.38-15.4
				c-2.75-11.24,4.15-22.63,15.4-25.38c7.13-1.75,14.44,0.4,19.51,5.28c0.22,0.22,0.45,0.44,0.67,0.67
				c1.03,0.85,2.42,1.23,3.82,0.88c2.36-0.57,3.81-2.95,3.23-5.32c-0.14-0.58-0.4-1.11-0.74-1.58c-0.29-0.3-0.61-0.59-0.92-0.88
				c-7.16-6.91-17.53-10.02-27.64-7.54C140.84,4.74,131.07,20.86,134.97,36.78"/>
			<path id="XMLID_3459_" class="st54" d="M11.13,6.78C-1.79,17.29-3.75,36.34,6.76,49.27c6.68,8.2,16.99,12.05,27.02,10.84
				c0.43-0.05,0.86-0.09,1.29-0.16c0.56-0.16,1.09-0.43,1.57-0.82c1.92-1.56,2.2-4.38,0.64-6.28c-0.92-1.14-2.28-1.68-3.64-1.63
				c-0.32,0.05-0.64,0.1-0.96,0.14c-7.1,0.85-14.33-1.9-19.04-7.69c-7.42-9.12-6.03-22.58,3.09-30c9.12-7.42,22.58-6.04,30.01,3.09
				c4.7,5.79,5.92,13.42,3.64,20.2c-0.1,0.3-0.21,0.61-0.33,0.91c-0.33,1.32-0.07,2.77,0.85,3.9c1.56,1.91,4.37,2.2,6.29,0.65
				c0.48-0.39,0.85-0.86,1.12-1.37c0.16-0.41,0.28-0.82,0.42-1.23c3.23-9.58,1.56-20.46-5.12-28.66C43.1-1.77,24.04-3.73,11.13,6.78
				"/>
			<path id="XMLID_3458_" class="st54" d="M38.83,34.39c-1.5-1.78-4.18-2.03-5.98-0.57c-1.77,1.44-2.09,4.05-0.73,5.89l0.03,0.04
				l2.75,3.19l12.45,14.83c1.49,1.78,4.18,2.04,5.98,0.57c1.77-1.44,2.09-4.04,0.73-5.89l-0.03-0.05l-4.11-4.73L38.83,34.39z"/>
			<path id="XMLID_3_" class="st55" d="M45.15,75.71c0,1.97-0.61,3.6-1.81,4.9c-1.21,1.29-2.7,1.95-4.48,1.95
				c-1.69,0-3.11-0.6-4.26-1.79c-1.14-1.19-1.71-2.7-1.71-4.54c0-1.97,0.6-3.6,1.81-4.9c1.2-1.3,2.7-1.95,4.48-1.95
				c1.69,0,3.11,0.6,4.25,1.78C44.58,72.35,45.15,73.87,45.15,75.71 M42.49,75.99c0-1.34-0.35-2.43-1.03-3.26
				c-0.69-0.84-1.54-1.26-2.54-1.26c-0.94,0-1.73,0.42-2.39,1.26c-0.66,0.84-0.98,1.9-0.98,3.19c0,1.34,0.34,2.42,1.04,3.26
				c0.69,0.84,1.53,1.26,2.54,1.26c0.94,0,1.73-0.43,2.39-1.27C42.17,78.32,42.49,77.26,42.49,75.99z M56.23,69.67l-0.09,2.11
				c-2-0.1-3.81-0.15-5.44-0.15c0.08,1.1,0.13,2.32,0.13,3.65c1.24,0,2.64-0.04,4.21-0.1v2c-1.59-0.06-2.99-0.09-4.21-0.09
				c0,1.82,0.03,3.53,0.09,5.12h-2.66c0.09-1.94,0.12-4.12,0.12-6.56c0-2.33-0.04-4.33-0.12-5.98H56.23z M67.69,69.67l-0.07,2.07
				c-1.28-0.1-2.49-0.15-3.63-0.15c-0.01,1.21-0.02,2.56-0.02,4.05c0,2.31,0.04,4.5,0.11,6.56h-2.7c0.09-2.04,0.13-4.22,0.13-6.56
				c0-1.46-0.01-2.81-0.04-4.05c-0.91,0-2.15,0.05-3.73,0.15l0.08-2.08H67.69z M86.85,69.67c0,0.6-0.64,2.72-1.93,6.35
				C83.64,79.67,83,81.72,83,82.2h-2.54c0-0.5-0.39-1.93-1.16-4.28c-0.83-2.51-1.3-4.18-1.4-4.98h-0.17
				c-0.1,0.81-0.53,2.48-1.29,5.02c-0.71,2.37-1.06,3.78-1.06,4.24h-2.6c0-0.6-0.63-2.74-1.9-6.44c-1.26-3.69-1.9-5.72-1.9-6.09
				h3.05c0,0.41,0.37,2.02,1.1,4.83c0.73,2.81,1.1,4.49,1.1,5.01h0.15c0-0.52,0.39-2.17,1.17-4.92c0.78-2.75,1.18-4.4,1.18-4.92
				h2.74c0,0.49,0.39,2.16,1.17,5.01c0.78,2.86,1.18,4.47,1.18,4.83h0.15c0-0.46,0.36-2.03,1.06-4.71c0.71-2.68,1.07-4.39,1.07-5.14
				H86.85z M99.86,82.2h-3.08c0-0.42-0.29-1.62-0.87-3.6h-4.45c-0.6,1.95-0.9,3.15-0.9,3.6h-2.9c0-0.25,0.75-2.31,2.25-6.16
				c1.5-3.86,2.25-5.98,2.25-6.38h3.64c0,0.36,0.68,2.46,2.04,6.28C99.18,79.77,99.86,81.86,99.86,82.2z M95.41,76.77
				c-1.1-3.32-1.65-5.1-1.65-5.37h-0.15c0,0.25-0.57,2.04-1.71,5.37H95.41z M112.48,82.2h-2.85c-0.75-2.27-1.31-3.67-1.72-4.2
				c-0.39-0.53-1.04-0.8-1.92-0.8c-0.37,0-0.73,0-1.07,0.01c0,1.65,0.02,3.31,0.09,5h-2.67c0.08-1.94,0.12-4.12,0.12-6.56
				c0-2.33-0.04-4.33-0.12-5.97H104c0.19,0,0.59-0.01,1.21-0.03c0.61-0.02,1.18-0.03,1.7-0.03c2.94,0,4.42,1.01,4.42,3.03
				c0,1.59-0.84,2.7-2.53,3.33v0.15c0.65,0.18,1.22,0.69,1.71,1.51C110.99,78.47,111.65,79.99,112.48,82.2z M108.87,73.35
				c0-1.27-0.82-1.91-2.46-1.91c-0.6,0-1.13,0.04-1.6,0.13c0.07,0.99,0.1,2.29,0.1,3.89c0.35,0.01,0.65,0.02,0.9,0.02
				C107.85,75.48,108.87,74.76,108.87,73.35z M123.33,80.09l-0.07,2.12h-8.19c0.08-1.94,0.12-4.12,0.12-6.56
				c0-2.34-0.04-4.33-0.12-5.98h7.81l-0.1,2.11c-1.93-0.11-3.67-0.15-5.24-0.15c0.06,0.89,0.1,1.95,0.1,3.16
				c1.34,0,2.77-0.03,4.3-0.11v2.01c-1.5-0.06-2.93-0.1-4.3-0.1c0,1.3,0.02,2.52,0.08,3.66C119.47,80.25,121.34,80.19,123.33,80.09z
				 M140.67,79.93l-0.16,2.21c-0.91,0.22-1.81,0.32-2.7,0.32c-2.2,0-3.88-0.6-5.03-1.82c-1.16-1.22-1.73-2.7-1.73-4.43
				c0-1.8,0.61-3.37,1.83-4.71c1.22-1.33,2.9-2,5.03-2c0.78,0,1.52,0.09,2.23,0.27l-0.34,2.22c-0.76-0.24-1.48-0.36-2.17-0.36
				c-1.31,0-2.27,0.41-2.91,1.24c-0.63,0.82-0.95,1.83-0.95,3.01c0,1.21,0.38,2.26,1.13,3.14c0.75,0.89,1.81,1.33,3.17,1.33
				C138.87,80.34,139.74,80.2,140.67,79.93z M146.3,82.2h-2.73c0.09-1.99,0.13-4.17,0.13-6.56c0-2.34-0.04-4.34-0.13-5.97h2.73
				c-0.08,1.62-0.13,3.62-0.13,5.97C146.17,78.07,146.22,80.25,146.3,82.2z M158.83,69.67l-0.07,2.07c-1.28-0.1-2.49-0.15-3.62-0.15
				c-0.01,1.21-0.02,2.56-0.02,4.05c0,2.31,0.04,4.5,0.1,6.56h-2.69c0.08-2.04,0.12-4.22,0.12-6.56c0-1.46-0.01-2.81-0.04-4.05
				c-0.9,0-2.15,0.05-3.73,0.15l0.08-2.08H158.83z M170.79,69.67c0,0.27-0.37,0.97-1.1,2.13c-1.12,1.77-1.81,2.87-2.05,3.29
				c-0.73,1.3-1.1,2.27-1.1,2.89c0,1.42,0.04,2.82,0.11,4.22h-2.73c0.07-1.4,0.1-2.81,0.1-4.24c0-0.65-0.34-1.65-1.01-2.97
				c-0.31-0.61-0.94-1.71-1.88-3.3c-0.67-1.14-1.01-1.81-1.01-2.01h3.02c0,0.23,0.4,1.21,1.21,2.92c0.81,1.72,1.21,2.83,1.21,3.33
				h0.16c0-0.46,0.39-1.51,1.18-3.16c0.78-1.64,1.18-2.67,1.18-3.09H170.79z M30.43,78.78c0,2.51-1.81,3.77-5.41,3.77
				c-1.22,0-2.36-0.15-3.41-0.44l0.47-2.15c1.04,0.37,2.02,0.54,2.94,0.54c1.02,0,1.76-0.1,2.22-0.3c0.45-0.2,0.67-0.54,0.67-1
				c0-0.49-0.21-0.9-0.63-1.23c-0.37-0.3-1.11-0.68-2.22-1.15c-1.02-0.43-1.77-0.92-2.26-1.43c-0.62-0.65-0.94-1.45-0.94-2.4
				c0-1.1,0.41-1.97,1.23-2.59c0.82-0.62,1.99-0.94,3.53-0.94c1.26,0,2.31,0.11,3.17,0.32l-0.35,2.14c-0.86-0.32-1.8-0.48-2.81-0.48
				c-1.51,0-2.27,0.41-2.27,1.22c0,0.43,0.18,0.78,0.53,1.04c0.31,0.23,0.98,0.56,2.01,0.97c1.1,0.44,1.92,0.93,2.47,1.47
				C30.06,76.86,30.43,77.74,30.43,78.78z"/>
		</g>
	</g>
</g>
</svg>
